<svg width="96" height="96" viewBox="10.5 12 70.5 70.5" fill="none" xmlns="http://www.w3.org/2000/svg">
  <!-- "Vortex" — the swirl mark rebuilt with Fluent/Dataverse gradients -->
  <defs>
    <radialGradient id="vx_a1" cx="0" cy="0" r="1" gradientUnits="userSpaceOnUse"
      gradientTransform="translate(48 48) scale(42)">
      <stop offset="0.12" stop-color="#431407"/>
      <stop offset="0.55" stop-color="#9A3412"/>
      <stop offset="0.9" stop-color="#EA580C"/>
      <stop offset="1" stop-color="#F97316"/>
    </radialGradient>
    <radialGradient id="vx_a2" cx="0" cy="0" r="1" gradientUnits="userSpaceOnUse"
      gradientTransform="translate(48 48) scale(42)">
      <stop offset="0.12" stop-color="#7C2D12"/>
      <stop offset="0.5" stop-color="#EA580C"/>
      <stop offset="0.85" stop-color="#FB923C"/>
      <stop offset="1" stop-color="#FFD9A8"/>
    </radialGradient>
    <radialGradient id="vx_a3" cx="0" cy="0" r="1" gradientUnits="userSpaceOnUse"
      gradientTransform="translate(48 48) scale(42)">
      <stop offset="0.12" stop-color="#2E0D04"/>
      <stop offset="0.65" stop-color="#8A2E0B"/>
      <stop offset="1" stop-color="#E05A10"/>
    </radialGradient>
    <radialGradient id="vx_acc" cx="0" cy="0" r="1" gradientUnits="userSpaceOnUse"
      gradientTransform="translate(48 48) scale(34)">
      <stop offset="0.15" stop-color="#C2410C"/>
      <stop offset="0.7" stop-color="#FB923C"/>
      <stop offset="1" stop-color="#FFD9A8"/>
    </radialGradient>
    <radialGradient id="vx_acc2" cx="0" cy="0" r="1" gradientUnits="userSpaceOnUse"
      gradientTransform="translate(48 48) scale(34)">
      <stop offset="0.15" stop-color="#C2410C"/>
      <stop offset="0.7" stop-color="#F97316"/>
      <stop offset="1" stop-color="#FFE8CC"/>
    </radialGradient>
    <radialGradient id="vx_sheen" cx="0" cy="0" r="1" gradientUnits="userSpaceOnUse"
      gradientTransform="translate(64 20) rotate(125) scale(46)">
      <stop stop-color="#FFF1DD" stop-opacity="0.55"/>
      <stop offset="0.6" stop-color="#FFF1DD" stop-opacity="0"/>
      <stop offset="1" stop-color="#FFF1DD" stop-opacity="0"/>
    </radialGradient>
    <radialGradient id="vx_core" cx="0" cy="0" r="1" gradientUnits="userSpaceOnUse"
      gradientTransform="translate(46.5 46) rotate(65) scale(12)">
      <stop stop-color="#FFF7E6"/>
      <stop offset="0.5" stop-color="#FFD9A8"/>
      <stop offset="0.85" stop-color="#FB923C"/>
      <stop offset="1" stop-color="#C2410C"/>
    </radialGradient>
  </defs>
  <path d="M 48.00 12.83 L 49.66 12.44 L 51.33 12.32 L 53.01 12.38 L 54.67 12.57 L 56.32 12.88 L 57.95 13.29 L 59.55 13.81 L 61.12 14.42 L 62.64 15.12 L 64.12 15.90 L 65.55 16.77 L 66.93 17.71 L 68.25 18.73 L 69.50 19.81 L 70.70 20.95 L 71.82 22.16 L 72.87 23.41 L 73.86 24.72 L 74.76 26.07 L 75.59 27.46 L 76.33 28.89 L 77.00 30.34 L 77.59 31.82 L 78.09 33.33 L 78.51 34.84 L 78.84 36.37 L 79.09 37.90 L 79.26 39.43 L 79.35 40.95 L 79.35 42.47 L 79.27 43.98 L 79.12 45.46 L 78.89 46.92 L 78.58 48.36 L 78.20 49.76 L 77.75 51.13 L 77.23 52.46 L 76.65 53.74 L 76.00 54.98 L 75.29 56.17 L 74.53 57.31 L 73.72 58.39 L 72.86 59.42 L 71.96 60.38 L 71.02 61.29 L 70.03 62.13 L 69.02 62.90 L 67.98 63.61 L 66.92 64.25 L 65.83 64.83 L 64.74 65.33 L 63.63 65.77 L 62.51 66.13 L 61.39 66.43 L 60.27 66.66 L 59.16 66.83 L 58.06 66.92 L 56.97 66.96 L 55.90 66.93 L 54.86 66.84 L 53.83 66.69 L 52.84 66.48 L 51.87 66.22 L 50.94 65.90 L 50.05 65.54 L 49.20 65.13 L 48.39 64.67 L 47.62 64.18 L 46.91 63.65 L 46.24 63.08 L 45.62 62.48 L 45.05 61.86 L 44.54 61.22 L 44.08 60.55 L 43.68 59.87 L 43.33 59.18 L 43.04 58.48 L 42.80 57.78 L 42.62 57.07 L 42.49 56.37 L 42.42 55.68 L 42.41 54.99 L 42.44 54.32 L 42.53 53.67 L 42.67 53.03 L 42.85 52.42 L 43.09 51.84 L 43.37 51.28 L 43.71 50.75 L 44.08 50.26 L 44.13 50.24 L 44.10 50.50 L 44.09 50.77 L 44.09 51.05 L 44.10 51.35 L 44.13 51.65 L 44.18 51.96 L 44.24 52.27 L 44.33 52.59 L 44.43 52.91 L 44.56 53.24 L 44.70 53.56 L 44.87 53.88 L 45.06 54.20 L 45.28 54.52 L 45.51 54.83 L 45.77 55.13 L 46.06 55.43 L 46.36 55.72 L 46.69 56.00 L 47.03 56.26 L 47.40 56.51 L 47.80 56.75 L 48.21 56.97 L 48.64 57.17 L 49.09 57.36 L 49.56 57.52 L 50.05 57.66 L 50.56 57.78 L 51.08 57.88 L 51.62 57.95 L 52.17 57.99 L 52.74 58.01 L 53.31 57.99 L 53.90 57.95 L 54.50 57.88 L 55.10 57.77 L 55.71 57.64 L 56.33 57.47 L 56.94 57.26 L 57.56 57.02 L 58.18 56.75 L 58.80 56.44 L 59.41 56.09 L 60.02 55.71 L 60.62 55.28 L 61.21 54.83 L 61.78 54.33 L 62.35 53.80 L 62.89 53.23 L 63.42 52.62 L 63.93 51.97 L 64.42 51.29 L 64.88 50.57 L 65.32 49.82 L 65.72 49.03 L 66.10 48.21 L 66.44 47.36 L 66.75 46.47 L 67.02 45.55 L 67.25 44.61 L 67.43 43.63 L 67.58 42.63 L 67.68 41.61 L 67.73 40.56 L 67.73 39.49 L 67.67 38.40 L 67.57 37.30 L 67.41 36.18 L 67.19 35.05 L 66.92 33.91 L 66.59 32.77 L 66.19 31.62 L 65.74 30.47 L 65.22 29.32 L 64.64 28.17 L 63.99 27.04 L 63.28 25.91 L 62.50 24.80 L 61.66 23.70 L 60.75 22.62 L 59.77 21.57 L 58.72 20.54 L 57.62 19.54 L 56.44 18.57 L 55.20 17.63 L 53.89 16.72 L 52.52 15.84 L 51.08 14.98 L 49.58 14.11 L 48.00 13.17 Z" fill="url(#vx_a1)"/>
  <path d="M 78.45 65.58 L 77.97 67.22 L 77.23 68.72 L 76.35 70.15 L 75.35 71.50 L 74.26 72.77 L 73.08 73.97 L 71.84 75.10 L 70.52 76.15 L 69.16 77.12 L 67.74 78.01 L 66.27 78.81 L 64.77 79.53 L 63.23 80.17 L 61.66 80.72 L 60.08 81.18 L 58.47 81.55 L 56.86 81.84 L 55.23 82.03 L 53.61 82.14 L 51.99 82.16 L 50.38 82.09 L 48.79 81.94 L 47.22 81.71 L 45.66 81.39 L 44.14 81.00 L 42.65 80.53 L 41.20 79.98 L 39.79 79.36 L 38.43 78.67 L 37.11 77.91 L 35.85 77.10 L 34.64 76.22 L 33.49 75.29 L 32.40 74.31 L 31.38 73.27 L 30.42 72.20 L 29.53 71.09 L 28.71 69.94 L 27.95 68.76 L 27.28 67.55 L 26.67 66.32 L 26.14 65.08 L 25.68 63.82 L 25.30 62.56 L 24.98 61.29 L 24.75 60.02 L 24.58 58.75 L 24.49 57.50 L 24.47 56.26 L 24.51 55.03 L 24.62 53.83 L 24.80 52.65 L 25.04 51.50 L 25.34 50.38 L 25.70 49.30 L 26.11 48.25 L 26.58 47.25 L 27.09 46.29 L 27.66 45.38 L 28.26 44.52 L 28.90 43.71 L 29.58 42.95 L 30.29 42.25 L 31.03 41.60 L 31.79 41.01 L 32.57 40.47 L 33.37 40.00 L 34.18 39.59 L 35.00 39.23 L 35.82 38.93 L 36.65 38.70 L 37.47 38.52 L 38.28 38.40 L 39.09 38.33 L 39.88 38.32 L 40.65 38.37 L 41.40 38.46 L 42.13 38.61 L 42.83 38.81 L 43.50 39.05 L 44.14 39.33 L 44.74 39.66 L 45.31 40.03 L 45.83 40.43 L 46.31 40.87 L 46.74 41.33 L 47.13 41.83 L 47.47 42.35 L 47.76 42.90 L 48.00 43.47 L 48.00 43.53 L 47.78 43.37 L 47.55 43.23 L 47.31 43.09 L 47.05 42.95 L 46.77 42.82 L 46.48 42.71 L 46.18 42.61 L 45.86 42.52 L 45.53 42.45 L 45.19 42.40 L 44.83 42.36 L 44.47 42.35 L 44.10 42.36 L 43.72 42.38 L 43.33 42.43 L 42.93 42.50 L 42.54 42.60 L 42.14 42.72 L 41.73 42.86 L 41.33 43.03 L 40.93 43.23 L 40.52 43.45 L 40.13 43.70 L 39.74 43.97 L 39.35 44.27 L 38.97 44.59 L 38.61 44.95 L 38.25 45.33 L 37.90 45.73 L 37.58 46.16 L 37.26 46.62 L 36.96 47.10 L 36.69 47.60 L 36.43 48.13 L 36.20 48.69 L 35.98 49.26 L 35.80 49.86 L 35.64 50.48 L 35.51 51.12 L 35.40 51.77 L 35.33 52.44 L 35.29 53.13 L 35.29 53.84 L 35.32 54.56 L 35.38 55.28 L 35.48 56.02 L 35.63 56.77 L 35.81 57.53 L 36.03 58.29 L 36.29 59.05 L 36.59 59.81 L 36.94 60.57 L 37.33 61.33 L 37.77 62.09 L 38.24 62.83 L 38.77 63.57 L 39.34 64.29 L 39.95 65.00 L 40.61 65.69 L 41.32 66.36 L 42.07 67.01 L 42.86 67.64 L 43.70 68.24 L 44.58 68.80 L 45.51 69.34 L 46.47 69.84 L 47.48 70.30 L 48.53 70.72 L 49.62 71.10 L 50.74 71.43 L 51.90 71.71 L 53.09 71.95 L 54.31 72.13 L 55.57 72.25 L 56.85 72.32 L 58.16 72.33 L 59.49 72.28 L 60.85 72.16 L 62.22 71.98 L 63.61 71.73 L 65.01 71.41 L 66.42 71.02 L 67.84 70.56 L 69.27 70.03 L 70.70 69.42 L 72.15 68.74 L 73.59 68.00 L 75.06 67.18 L 76.56 66.31 L 78.17 65.42 Z" fill="url(#vx_a2)"/>
  <path d="M 17.55 65.58 L 16.37 64.35 L 15.44 62.96 L 14.65 61.48 L 13.98 59.94 L 13.42 58.35 L 12.97 56.73 L 12.61 55.09 L 12.36 53.43 L 12.20 51.76 L 12.14 50.09 L 12.18 48.42 L 12.31 46.75 L 12.53 45.10 L 12.83 43.47 L 13.23 41.87 L 13.71 40.29 L 14.27 38.75 L 14.91 37.25 L 15.63 35.79 L 16.42 34.38 L 17.28 33.02 L 18.21 31.71 L 19.20 30.47 L 20.25 29.28 L 21.35 28.16 L 22.50 27.11 L 23.70 26.12 L 24.95 25.21 L 26.23 24.38 L 27.54 23.61 L 28.88 22.93 L 30.24 22.32 L 31.62 21.79 L 33.02 21.34 L 34.42 20.97 L 35.83 20.67 L 37.24 20.46 L 38.65 20.32 L 40.05 20.26 L 41.43 20.28 L 42.80 20.37 L 44.14 20.53 L 45.46 20.76 L 46.75 21.06 L 48.00 21.42 L 49.22 21.85 L 50.40 22.34 L 51.53 22.89 L 52.62 23.49 L 53.65 24.14 L 54.64 24.84 L 55.57 25.58 L 56.45 26.37 L 57.27 27.19 L 58.03 28.04 L 58.72 28.92 L 59.36 29.82 L 59.93 30.75 L 60.44 31.69 L 60.89 32.64 L 61.27 33.61 L 61.58 34.57 L 61.84 35.54 L 62.03 36.50 L 62.16 37.46 L 62.23 38.40 L 62.24 39.33 L 62.20 40.24 L 62.10 41.12 L 61.94 41.99 L 61.73 42.82 L 61.48 43.62 L 61.18 44.39 L 60.83 45.12 L 60.44 45.81 L 60.02 46.45 L 59.56 47.06 L 59.07 47.61 L 58.55 48.12 L 58.00 48.58 L 57.44 48.99 L 56.85 49.35 L 56.25 49.65 L 55.64 49.91 L 55.02 50.10 L 54.40 50.25 L 53.78 50.33 L 53.15 50.37 L 52.53 50.34 L 51.92 50.26 L 51.87 50.24 L 52.11 50.13 L 52.35 50.00 L 52.60 49.86 L 52.85 49.70 L 53.10 49.53 L 53.34 49.33 L 53.58 49.12 L 53.81 48.89 L 54.04 48.63 L 54.26 48.36 L 54.46 48.08 L 54.66 47.77 L 54.84 47.44 L 55.01 47.10 L 55.16 46.74 L 55.29 46.36 L 55.41 45.97 L 55.51 45.56 L 55.58 45.14 L 55.64 44.71 L 55.67 44.26 L 55.68 43.80 L 55.66 43.33 L 55.62 42.86 L 55.56 42.37 L 55.46 41.88 L 55.34 41.39 L 55.19 40.89 L 55.01 40.39 L 54.80 39.89 L 54.57 39.39 L 54.30 38.89 L 54.00 38.40 L 53.67 37.91 L 53.31 37.43 L 52.91 36.96 L 52.49 36.50 L 52.04 36.06 L 51.55 35.62 L 51.03 35.21 L 50.48 34.81 L 49.91 34.43 L 49.30 34.07 L 48.66 33.74 L 48.00 33.43 L 47.31 33.15 L 46.59 32.90 L 45.85 32.68 L 45.08 32.49 L 44.29 32.33 L 43.47 32.22 L 42.64 32.13 L 41.79 32.09 L 40.92 32.09 L 40.03 32.13 L 39.13 32.22 L 38.22 32.35 L 37.30 32.53 L 36.37 32.75 L 35.44 33.03 L 34.50 33.35 L 33.56 33.73 L 32.63 34.16 L 31.69 34.64 L 30.77 35.17 L 29.85 35.76 L 28.95 36.40 L 28.06 37.10 L 27.19 37.85 L 26.34 38.66 L 25.51 39.52 L 24.72 40.43 L 23.95 41.40 L 23.21 42.43 L 22.51 43.51 L 21.85 44.63 L 21.23 45.81 L 20.65 47.05 L 20.13 48.32 L 19.65 49.65 L 19.23 51.02 L 18.86 52.44 L 18.54 53.90 L 18.29 55.41 L 18.10 56.95 L 17.96 58.54 L 17.89 60.17 L 17.86 61.84 L 17.86 63.58 L 17.83 65.42 Z" fill="url(#vx_a3)"/>
  <path d="M 72.53 36.56 L 73.05 37.51 L 73.45 38.51 L 73.76 39.55 L 74.01 40.60 L 74.21 41.65 L 74.34 42.72 L 74.42 43.79 L 74.44 44.86 L 74.42 45.92 L 74.34 46.98 L 74.21 48.03 L 74.04 49.06 L 73.82 50.08 L 73.55 51.09 L 73.24 52.07 L 72.88 53.04 L 72.49 53.98 L 72.05 54.90 L 71.57 55.79 L 71.06 56.65 L 70.51 57.48 L 69.93 58.28 L 69.32 59.05 L 68.68 59.78 L 68.01 60.48 L 67.32 61.14 L 66.60 61.76 L 65.86 62.35 L 65.10 62.89 L 64.32 63.40 L 63.53 63.86 L 62.72 64.29 L 61.91 64.67 L 61.08 65.01 L 60.25 65.31 L 59.41 65.57 L 58.57 65.79 L 57.73 65.96 L 56.89 66.10 L 56.06 66.19 L 55.23 66.25 L 54.41 66.26 L 53.60 66.24 L 52.80 66.18 L 52.01 66.08 L 51.24 65.95 L 50.48 65.78 L 49.74 65.58 L 49.03 65.35 L 48.33 65.08 L 47.66 64.79 L 47.01 64.46 L 46.39 64.11 L 45.79 63.74 L 45.22 63.34 L 44.68 62.92 L 44.17 62.48 L 43.68 62.02 L 43.23 61.55 L 42.81 61.06 L 42.43 60.55 L 42.07 60.04 L 41.75 59.51 L 41.46 58.98 L 41.20 58.45 L 40.98 57.90 L 40.79 57.36 L 40.63 56.82 L 40.50 56.28 L 40.41 55.74 L 40.35 55.21 L 40.32 54.68 L 40.31 54.16 L 40.34 53.65 L 40.40 53.16 L 40.49 52.67 L 40.60 52.21 L 40.74 51.75 L 40.90 51.32 L 41.09 50.90 L 41.30 50.51 L 41.53 50.13 L 41.78 49.78 L 42.05 49.45 L 42.33 49.14 L 42.64 48.86 L 42.96 48.60 L 43.29 48.38 L 43.63 48.17 L 43.99 48.00 L 44.01 48.00 L 43.82 48.17 L 43.64 48.35 L 43.46 48.54 L 43.29 48.76 L 43.12 48.98 L 42.97 49.22 L 42.83 49.48 L 42.69 49.75 L 42.58 50.03 L 42.47 50.32 L 42.38 50.63 L 42.30 50.94 L 42.24 51.27 L 42.20 51.61 L 42.18 51.95 L 42.17 52.31 L 42.18 52.67 L 42.21 53.03 L 42.26 53.40 L 42.33 53.78 L 42.42 54.16 L 42.54 54.54 L 42.67 54.92 L 42.82 55.30 L 43.00 55.68 L 43.20 56.06 L 43.42 56.44 L 43.66 56.81 L 43.92 57.18 L 44.21 57.54 L 44.52 57.89 L 44.85 58.24 L 45.20 58.57 L 45.57 58.89 L 45.97 59.20 L 46.38 59.50 L 46.82 59.78 L 47.27 60.05 L 47.75 60.30 L 48.24 60.53 L 48.75 60.75 L 49.28 60.94 L 49.83 61.11 L 50.39 61.27 L 50.97 61.39 L 51.56 61.50 L 52.17 61.58 L 52.78 61.63 L 53.41 61.66 L 54.05 61.66 L 54.70 61.63 L 55.36 61.58 L 56.02 61.49 L 56.69 61.38 L 57.36 61.23 L 58.04 61.05 L 58.71 60.84 L 59.39 60.60 L 60.07 60.33 L 60.74 60.02 L 61.41 59.68 L 62.08 59.31 L 62.74 58.90 L 63.39 58.47 L 64.03 57.99 L 64.65 57.49 L 65.27 56.95 L 65.87 56.37 L 66.45 55.77 L 67.01 55.13 L 67.56 54.46 L 68.08 53.76 L 68.59 53.03 L 69.06 52.26 L 69.52 51.47 L 69.94 50.65 L 70.33 49.80 L 70.70 48.92 L 71.03 48.02 L 71.34 47.09 L 71.60 46.14 L 71.83 45.17 L 72.03 44.17 L 72.19 43.15 L 72.31 42.11 L 72.39 41.06 L 72.44 39.98 L 72.45 38.89 L 72.43 37.77 L 72.41 36.62 Z" fill="url(#vx_acc)"/>
  <path d="M 45.64 74.96 L 44.56 74.94 L 43.49 74.78 L 42.44 74.54 L 41.41 74.23 L 40.39 73.87 L 39.40 73.45 L 38.44 72.98 L 37.50 72.47 L 36.59 71.92 L 35.72 71.32 L 34.87 70.69 L 34.06 70.02 L 33.29 69.32 L 32.55 68.58 L 31.85 67.82 L 31.20 67.03 L 30.58 66.22 L 30.00 65.38 L 29.47 64.52 L 28.98 63.65 L 28.53 62.76 L 28.13 61.86 L 27.77 60.94 L 27.46 60.02 L 27.19 59.09 L 26.96 58.16 L 26.78 57.22 L 26.65 56.29 L 26.56 55.36 L 26.51 54.43 L 26.50 53.52 L 26.53 52.61 L 26.61 51.71 L 26.73 50.82 L 26.88 49.95 L 27.08 49.10 L 27.31 48.26 L 27.58 47.45 L 27.88 46.65 L 28.21 45.88 L 28.58 45.14 L 28.98 44.42 L 29.40 43.73 L 29.86 43.06 L 30.34 42.43 L 30.84 41.83 L 31.36 41.26 L 31.90 40.72 L 32.47 40.22 L 33.04 39.75 L 33.63 39.31 L 34.24 38.91 L 34.85 38.55 L 35.48 38.22 L 36.11 37.92 L 36.74 37.66 L 37.38 37.44 L 38.02 37.25 L 38.65 37.10 L 39.29 36.98 L 39.92 36.90 L 40.54 36.85 L 41.15 36.83 L 41.76 36.84 L 42.35 36.89 L 42.93 36.97 L 43.50 37.07 L 44.05 37.21 L 44.58 37.37 L 45.09 37.56 L 45.59 37.77 L 46.06 38.01 L 46.51 38.26 L 46.93 38.54 L 47.33 38.84 L 47.71 39.16 L 48.06 39.49 L 48.38 39.83 L 48.68 40.19 L 48.94 40.56 L 49.18 40.94 L 49.39 41.33 L 49.57 41.72 L 49.72 42.12 L 49.84 42.52 L 49.94 42.93 L 50.00 43.33 L 50.03 43.73 L 50.03 44.13 L 50.01 44.53 L 49.99 44.55 L 49.95 44.30 L 49.88 44.05 L 49.80 43.80 L 49.70 43.54 L 49.59 43.29 L 49.46 43.03 L 49.31 42.78 L 49.14 42.53 L 48.96 42.29 L 48.75 42.05 L 48.53 41.82 L 48.30 41.60 L 48.04 41.38 L 47.77 41.18 L 47.49 40.98 L 47.19 40.80 L 46.87 40.63 L 46.54 40.47 L 46.19 40.33 L 45.83 40.20 L 45.46 40.09 L 45.07 40.00 L 44.67 39.92 L 44.26 39.86 L 43.85 39.83 L 43.42 39.81 L 42.98 39.81 L 42.54 39.84 L 42.09 39.88 L 41.63 39.95 L 41.17 40.04 L 40.71 40.15 L 40.25 40.29 L 39.78 40.45 L 39.31 40.64 L 38.85 40.85 L 38.39 41.09 L 37.93 41.35 L 37.47 41.63 L 37.02 41.94 L 36.58 42.28 L 36.15 42.64 L 35.73 43.03 L 35.32 43.44 L 34.92 43.87 L 34.53 44.33 L 34.16 44.82 L 33.80 45.33 L 33.46 45.86 L 33.14 46.41 L 32.84 46.98 L 32.56 47.58 L 32.31 48.20 L 32.07 48.83 L 31.86 49.49 L 31.68 50.17 L 31.52 50.86 L 31.39 51.56 L 31.29 52.29 L 31.22 53.02 L 31.17 53.78 L 31.17 54.54 L 31.19 55.31 L 31.24 56.09 L 31.33 56.88 L 31.46 57.68 L 31.62 58.48 L 31.82 59.29 L 32.05 60.09 L 32.32 60.90 L 32.63 61.71 L 32.97 62.51 L 33.35 63.31 L 33.78 64.11 L 34.24 64.90 L 34.73 65.67 L 35.27 66.44 L 35.85 67.20 L 36.46 67.94 L 37.12 68.66 L 37.81 69.37 L 38.54 70.06 L 39.30 70.72 L 40.10 71.37 L 40.94 71.99 L 41.82 72.59 L 42.73 73.17 L 43.67 73.73 L 44.64 74.27 L 45.65 74.83 Z" fill="url(#vx_acc2)"/>
  <circle cx="48" cy="48" r="6.5" fill="url(#vx_core)"/>
  <circle cx="48" cy="48" r="34" fill="url(#vx_sheen)"/>
</svg>